/* XPM */
static char * securedrop_client_xpm[] = {
"64 64 672 2",
"  	c None",
". 	c #9AA5BF",
"+ 	c #9AA6C0",
"@ 	c #9DA7C1",
"# 	c #9BA4C0",
"$ 	c #98A4BF",
"% 	c #99A5BF",
"& 	c #99A2BF",
"* 	c #99A4BE",
"= 	c #9CA6BD",
"- 	c #9CA4C0",
"; 	c #97A3BE",
"> 	c #9AA5C0",
", 	c #97A3BD",
"' 	c #98A5BF",
") 	c #98A4BE",
"! 	c #99A5C0",
"~ 	c #9AA3BC",
"{ 	c #9EA5C1",
"] 	c #98A3BE",
"^ 	c #99A5BE",
"/ 	c #99A3C0",
"( 	c #9CA5BC",
"_ 	c #A0A7C2",
": 	c #98A5BE",
"< 	c #97A4BE",
"[ 	c #95A2BB",
"} 	c #99A4BF",
"| 	c #99A4C0",
"1 	c #9AA6C2",
"2 	c #9DA5BE",
"3 	c #A1A8C1",
"4 	c #96A3BB",
"5 	c #97A2BD",
"6 	c #9AA5C1",
"7 	c #9EA8BE",
"8 	c #9EA7C0",
"9 	c #97A2BB",
"0 	c #99A6C0",
"a 	c #98A3BF",
"b 	c #9EA6C0",
"c 	c #9AA4C0",
"d 	c #99A4C1",
"e 	c #98A4C0",
"f 	c #9BA5BD",
"g 	c #9FA8C2",
"h 	c #9BA5C0",
"i 	c #9AA6BF",
"j 	c #96A2BD",
"k 	c #929EBB",
"l 	c #8D99B8",
"m 	c #8995B2",
"n 	c #8B97B3",
"o 	c #99A3BF",
"p 	c #9DA5BF",
"q 	c #A1AAC3",
"r 	c #9BA4C1",
"s 	c #8C99B7",
"t 	c #7885A9",
"u 	c #7582A9",
"v 	c #7280A6",
"w 	c #657295",
"x 	c #546380",
"y 	c #4F5E75",
"z 	c #66748A",
"A 	c #9CA8C2",
"B 	c #98A3BD",
"C 	c #9AA4BF",
"D 	c #A1ABC3",
"E 	c #97A4BD",
"F 	c #8C98B5",
"G 	c #7482A8",
"H 	c #7684A9",
"I 	c #7481A7",
"J 	c #7783AB",
"K 	c #69769A",
"L 	c #5B6985",
"M 	c #4A5871",
"N 	c #3C4B5E",
"O 	c #5E6C82",
"P 	c #9BA7C1",
"Q 	c #99A6BF",
"R 	c #9BA3BE",
"S 	c #A3ACC4",
"T 	c #97A2BC",
"U 	c #98A4BD",
"V 	c #8894B5",
"W 	c #7784A9",
"X 	c #596784",
"Y 	c #45546A",
"Z 	c #39485A",
"` 	c #38475A",
" .	c #3C4C5F",
"..	c #3B4A5E",
"+.	c #4D5C6E",
"@.	c #9FAAC5",
"#.	c #9BA5BF",
"$.	c #A3ACC3",
"%.	c #7884A7",
"&.	c #2B3C4B",
"*.	c #263644",
"=.	c #293948",
"-.	c #273746",
";.	c #2A3A49",
">.	c #273745",
",.	c #324152",
"'.	c #596883",
").	c #8591B4",
"!.	c #93A0BD",
"~.	c #9AA6C1",
"{.	c #96A2BC",
"].	c #99A2BE",
"^.	c #9AA3BF",
"/.	c #8A93A6",
"(.	c #738097",
"_.	c #4F5D70",
":.	c #39475A",
"<.	c #3A4859",
"[.	c #2F3D4E",
"}.	c #2D3D4B",
"|.	c #384757",
"1.	c #5B6A87",
"2.	c #7583A9",
"3.	c #7380A7",
"4.	c #7581A5",
"5.	c #7C88A5",
"6.	c #94A0BA",
"7.	c #374552",
"8.	c #354554",
"9.	c #737F95",
"0.	c #9BA6C2",
"a.	c #9EAAC5",
"b.	c #A0ABC7",
"c.	c #A1ACC7",
"d.	c #556478",
"e.	c #39475B",
"f.	c #5B6883",
"g.	c #7681A7",
"h.	c #7380A5",
"i.	c #5C6A87",
"j.	c #48566C",
"k.	c #4A596D",
"l.	c #8794AD",
"m.	c #98A5C0",
"n.	c #8F9AB9",
"o.	c #7B87AC",
"p.	c #3F4C58",
"q.	c #243441",
"r.	c #384656",
"s.	c #758298",
"t.	c #9CA8C3",
"u.	c #8692AB",
"v.	c #57647D",
"w.	c #5B6989",
"x.	c #707CA2",
"y.	c #7280A5",
"z.	c #5A6885",
"A.	c #5F6C85",
"B.	c #8995AE",
"C.	c #8E9BB9",
"D.	c #7C88AC",
"E.	c #7381A7",
"F.	c #7584A8",
"G.	c #414E5A",
"H.	c #293A47",
"I.	c #243442",
"J.	c #354555",
"K.	c #77849C",
"L.	c #9AA7C1",
"M.	c #7986A3",
"N.	c #6F7BA0",
"O.	c #8591B3",
"P.	c #94A0BB",
"Q.	c #909BB9",
"R.	c #7B88AB",
"S.	c #7783AA",
"T.	c #3F4E5A",
"U.	c #273747",
"V.	c #293A48",
"W.	c #384758",
"X.	c #7C89A0",
"Y.	c #9FAAC4",
"Z.	c #919DBB",
"`.	c #7D89AD",
" +	c #7481A8",
".+	c #7684AA",
"++	c #7583A8",
"@+	c #7886AB",
"#+	c #3F4D59",
"$+	c #273846",
"%+	c #293847",
"&+	c #283847",
"*+	c #283846",
"=+	c #283746",
"-+	c #2A3948",
";+	c #293947",
">+	c #394859",
",+	c #838FA8",
"'+	c #9CA7C3",
")+	c #939FBB",
"!+	c #7E8AAD",
"~+	c #7682AA",
"{+	c #7682A9",
"]+	c #7482A7",
"^+	c #7381A6",
"/+	c #7785A9",
"(+	c #414F5C",
"_+	c #293848",
":+	c #283947",
"<+	c #2A3A4A",
"[+	c #233240",
"}+	c #404F61",
"|+	c #8592AA",
"1+	c #94A1BD",
"2+	c #7E8BAD",
"3+	c #737FA5",
"4+	c #7684A8",
"5+	c #7683A9",
"6+	c #7583A7",
"7+	c #2B3A49",
"8+	c #233340",
"9+	c #475667",
"0+	c #8793AB",
"a+	c #9DA9C4",
"b+	c #94A0BD",
"c+	c #808EAF",
"d+	c #7782A9",
"e+	c #7582A8",
"f+	c #7785AA",
"g+	c #2A3B49",
"h+	c #253543",
"i+	c #4A586A",
"j+	c #9FA9C5",
"k+	c #9CA6C1",
"l+	c #94A0BC",
"m+	c #828EB0",
"n+	c #7782A8",
"o+	c #414F5B",
"p+	c #2B3B4A",
"q+	c #283948",
"r+	c #4B5A6B",
"s+	c #8A97AE",
"t+	c #9DA8C4",
"u+	c #96A1BF",
"v+	c #818DAF",
"w+	c #7784A8",
"x+	c #283747",
"y+	c #2A3B4A",
"z+	c #263645",
"A+	c #4E5E6F",
"B+	c #939FB7",
"C+	c #97A4BF",
"D+	c #828EAF",
"E+	c #7682A8",
"F+	c #7482A6",
"G+	c #414E5B",
"H+	c #273645",
"I+	c #2A3949",
"J+	c #263746",
"K+	c #243342",
"L+	c #566475",
"M+	c #95A1BA",
"N+	c #97A2BF",
"O+	c #8591B2",
"P+	c #3E4C58",
"Q+	c #293946",
"R+	c #324151",
"S+	c #3D4E5F",
"T+	c #263744",
"U+	c #243443",
"V+	c #58687B",
"W+	c #96A3BD",
"X+	c #8592B2",
"Y+	c #7683A8",
"Z+	c #2B3B49",
"`+	c #334453",
" @	c #6F839B",
".@	c #63778B",
"+@	c #394B5A",
"@@	c #263643",
"#@	c #283946",
"$@	c #273644",
"%@	c #5E6C80",
"&@	c #94A1BB",
"*@	c #8894B3",
"=@	c #7483A8",
"-@	c #7784AA",
";@	c #7583AA",
">@	c #8895B4",
",@	c #7C89AE",
"'@	c #7885AB",
")@	c #404F5A",
"!@	c #334353",
"~@	c #697F95",
"{@	c #6B7E94",
"]@	c #6D8198",
"^@	c #607389",
"/@	c #394A5A",
"(@	c #263544",
"_@	c #2A3A47",
":@	c #616F83",
"<@	c #8C98B8",
"[@	c #7884AA",
"}@	c #7782AA",
"|@	c #727EA6",
"1@	c #8B96B7",
"2@	c #C5CDE3",
"3@	c #E1E9F6",
"4@	c #E1E7F6",
"5@	c #D8E1EF",
"6@	c #7F8AAE",
"7@	c #334354",
"8@	c #6B8096",
"9@	c #6C8096",
"0@	c #6A7F94",
"a@	c #6E8399",
"b@	c #5F7286",
"c@	c #394B59",
"d@	c #293845",
"e@	c #20313B",
"f@	c #7A87AF",
"g@	c #7582A7",
"h@	c #7682A7",
"i@	c #6F7DA4",
"j@	c #8893B6",
"k@	c #C3CDDF",
"l@	c #DEE6F3",
"m@	c #DAE2EF",
"n@	c #DBE3F0",
"o@	c #DCE5F2",
"p@	c #DEE5F2",
"q@	c #2A3A48",
"r@	c #344454",
"s@	c #697F96",
"t@	c #6B7F94",
"u@	c #6B8095",
"v@	c #687E92",
"w@	c #697E93",
"x@	c #6C8196",
"y@	c #6D8199",
"z@	c #5E7085",
"A@	c #354757",
"B@	c #21323E",
"C@	c #7C89B1",
"D@	c #8390B3",
"E@	c #BFC9DD",
"F@	c #DCE3F1",
"G@	c #DDE4F4",
"H@	c #DAE2F0",
"I@	c #DCE4F1",
"J@	c #ABB5CE",
"K@	c #6A8096",
"L@	c #6A7E93",
"M@	c #697F94",
"N@	c #687D93",
"O@	c #6A7E96",
"P@	c #6A7F95",
"Q@	c #6A7F93",
"R@	c #5B6E82",
"S@	c #334454",
"T@	c #283645",
"U@	c #283848",
"V@	c #243440",
"W@	c #7B88B0",
"X@	c #7783A8",
"Y@	c #7D89AC",
"Z@	c #BAC4DA",
"`@	c #DCE5F0",
" #	c #DCE3F0",
".#	c #DAE3EF",
"+#	c #DAE2F1",
"@#	c #D9E0EE",
"##	c #DFE6F2",
"$#	c #7381A8",
"%#	c #7986AB",
"&#	c #3F4E59",
"*#	c #6A7E94",
"=#	c #687E93",
"-#	c #687D92",
";#	c #6E8299",
">#	c #586A7F",
",#	c #304250",
"'#	c #21323D",
")#	c #7B89B1",
"!#	c #7581A7",
"~#	c #7A86AB",
"{#	c #B4BED6",
"]#	c #E1E8F7",
"^#	c #DBE2F2",
"/#	c #D9E1EE",
"(#	c #DCE4F2",
"_#	c #DDE5F3",
":#	c #DDE6F6",
"<#	c #DFE6F3",
"[#	c #A9B3CD",
"}#	c #42505C",
"|#	c #324252",
"1#	c #6A7F96",
"2#	c #6B8094",
"3#	c #6A8095",
"4#	c #607488",
"5#	c #2B3C4A",
"6#	c #5A6E83",
"7#	c #6D8298",
"8#	c #6B7F95",
"9#	c #6B7F96",
"0#	c #6C8296",
"a#	c #6D8196",
"b#	c #57697D",
"c#	c #23333E",
"d#	c #7987AF",
"e#	c #AAB5CF",
"f#	c #DFE7F5",
"g#	c #DDE4F1",
"h#	c #DBE3EF",
"i#	c #DCE5F1",
"j#	c #DBE3F1",
"k#	c #DEE5F3",
"l#	c #D1DAEA",
"m#	c #96A2C0",
"n#	c #6B799E",
"o#	c #D7DFF0",
"p#	c #DCE4F0",
"q#	c #ACB6CF",
"r#	c #7280A7",
"s#	c #404E5A",
"t#	c #243340",
"u#	c #344756",
"v#	c #607085",
"w#	c #6C8098",
"x#	c #72869C",
"y#	c #22323D",
"z#	c #717FA5",
"A#	c #D1D9EA",
"B#	c #DAE3F0",
"C#	c #D9E1ED",
"D#	c #D3DAEA",
"E#	c #9BA8C3",
"F#	c #707EA5",
"G#	c #7584A9",
"H#	c #6E7BA1",
"I#	c #D3DBEC",
"J#	c #DBE4F0",
"K#	c #DEE6F2",
"L#	c #AAB4CD",
"M#	c #727FA6",
"N#	c #404D5A",
"O#	c #344354",
"P#	c #697E94",
"Q#	c #6B8196",
"R#	c #63758A",
"S#	c #3D4F60",
"T#	c #384959",
"U#	c #6D829A",
"V#	c #6B7F97",
"W#	c #70849B",
"X#	c #273847",
"Y#	c #22333E",
"Z#	c #717FA6",
"`#	c #D1D9E8",
" $	c #D4DCEC",
".$	c #A1ABC7",
"+$	c #6C7AA2",
"@$	c #D5DCED",
"#$	c #ABB5CF",
"$$	c #7683A7",
"%$	c #314151",
"&$	c #384A5A",
"*$	c #3C4C5D",
"=$	c #63788B",
"-$	c #72869D",
";$	c #243540",
">$	c #D0D8E8",
",$	c #DBE2F0",
"'$	c #DFE7F3",
")$	c #97A2C1",
"!$	c #6F7CA3",
"~$	c #D4DCED",
"{$	c #ABB4CE",
"]$	c #727FA7",
"^$	c #7380A4",
"/$	c #2D3E4D",
"($	c #617487",
"_$	c #6C8097",
":$	c #697E95",
"<$	c #5D6E84",
"[$	c #324353",
"}$	c #253642",
"|$	c #3F5262",
"1$	c #708399",
"2$	c #253544",
"3$	c #2B3A4A",
"4$	c #22323E",
"5$	c #7A88B0",
"6$	c #D1D9E9",
"7$	c #E0E8F4",
"8$	c #6D7BA1",
"9$	c #D2DAEB",
"0$	c #ADB6CF",
"a$	c #717EA5",
"b$	c #7885AA",
"c$	c #263745",
"d$	c #253542",
"e$	c #3A4C5C",
"f$	c #64788C",
"g$	c #596B7F",
"h$	c #2D3D4D",
"i$	c #283A47",
"j$	c #293A49",
"k$	c #D9E1EF",
"l$	c #97A1C0",
"m$	c #6D7BA2",
"n$	c #DDE5F2",
"o$	c #A8B2CB",
"p$	c #2F3F4E",
"q$	c #304251",
"r$	c #243643",
"s$	c #3F5060",
"t$	c #65788D",
"u$	c #6A8094",
"v$	c #6F8399",
"w$	c #526376",
"x$	c #23343F",
"y$	c #7C8AB2",
"z$	c #D1D8E8",
"A$	c #DFE6F4",
"B$	c #97A2C0",
"C$	c #6B79A0",
"D$	c #D5DDEE",
"E$	c #DBE4F1",
"F$	c #AAB5CE",
"G$	c #7886AA",
"H$	c #293949",
"I$	c #576A7D",
"J$	c #243242",
"K$	c #3F5162",
"L$	c #64778D",
"M$	c #697D94",
"N$	c #697D92",
"O$	c #73879D",
"P$	c #243343",
"Q$	c #7B88B1",
"R$	c #E0E7F4",
"S$	c #95A0BF",
"T$	c #7783A9",
"U$	c #D9E1F2",
"V$	c #ABB5CD",
"W$	c #698095",
"X$	c #6E8198",
"Y$	c #57687E",
"Z$	c #314352",
"`$	c #273643",
" %	c #415161",
".%	c #62768B",
"+%	c #71859C",
"@%	c #23333F",
"#%	c #7380A8",
"$%	c #CFD8E7",
"%%	c #DCE3F2",
"&%	c #7281A5",
"*%	c #7E8CAF",
"=%	c #C2CCDF",
"-%	c #DBE4EF",
";%	c #DDE5F1",
">%	c #A9B5CE",
",%	c #7482A5",
"'%	c #3F4D58",
")%	c #364655",
"!%	c #6D7F96",
"~%	c #6C8197",
"{%	c #314050",
"]%	c #253441",
"^%	c #2B3847",
"/%	c #4C5F72",
"(%	c #6B8097",
"_%	c #243543",
":%	c #7A87B0",
"<%	c #D0D9E9",
"[%	c #95A0BE",
"}%	c #7A88AC",
"|%	c #B3BDD6",
"1%	c #DEE5F4",
"2%	c #6B8197",
"3%	c #6C8095",
"4%	c #54687B",
"5%	c #2F414F",
"6%	c #435264",
"7%	c #6B8098",
"8%	c #697E92",
"9%	c #24343F",
"0%	c #7C89B2",
"a%	c #ABB6CE",
"b%	c #DAE2EE",
"c%	c #D6E0ED",
"d%	c #3D4B57",
"e%	c #415364",
"f%	c #687B91",
"g%	c #6B7F93",
"h%	c #6D8297",
"i%	c #5C7084",
"j%	c #70859B",
"k%	c #293846",
"l%	c #BBC3D9",
"m%	c #D8E1F0",
"n%	c #818CAE",
"o%	c #283845",
"p%	c #455668",
"q%	c #6F849B",
"r%	c #253443",
"s%	c #D0D9E8",
"t%	c #DBE1F2",
"u%	c #A7B1CA",
"v%	c #3E4D58",
"w%	c #293746",
"x%	c #485A6C",
"y%	c #667B91",
"z%	c #717EA6",
"A%	c #DAE1EF",
"B%	c #DAE3F1",
"C%	c #AFB9D1",
"D%	c #7685A8",
"E%	c #263646",
"F%	c #495A6C",
"G%	c #697F93",
"H%	c #22343E",
"I%	c #7D8AB2",
"J%	c #DCE3EF",
"K%	c #AFBAD3",
"L%	c #7B87AB",
"M%	c #2C3C4A",
"N%	c #495B6D",
"O%	c #6C7F96",
"P%	c #71869D",
"Q%	c #263543",
"R%	c #7986AF",
"S%	c #DDE3F1",
"T%	c #B3BBD4",
"U%	c #808BAF",
"V%	c #2D3B47",
"W%	c #253644",
"X%	c #4C5E71",
"Y%	c #D1DAE9",
"Z%	c #E1E9F5",
"`%	c #B5C0D6",
" &	c #7F8DB0",
".&	c #7380A6",
"+&	c #7483A7",
"@&	c #273946",
"#&	c #506375",
"$&	c #74879F",
"%&	c #D3DDE9",
"&&	c #BDC6DA",
"*&	c #7E8AAF",
"=&	c #2B3A48",
"-&	c #2A3947",
";&	c #2F3F50",
">&	c #273744",
",&	c #7C8AB1",
"'&	c #818EB2",
")&	c #717EA7",
"!&	c #7A88AF",
"~&	c #22333F",
"{&	c #7684A7",
"]&	c #253540",
"^&	c #7480A7",
"/&	c #23343E",
"(&	c #22333D",
"_&	c #7883AB",
":&	c #7383A8",
"<&	c #21313C",
"[&	c #7B89B0",
"}&	c #7D89B4",
"                                                                                                                                ",
"                                                              . + @                                                             ",
"                                                        # $ $ + % & * =                                                         ",
"                                                    - ; $ . > , ' $ ) $ ! ~                                                     ",
"                                                { ; ) ] % $ % % + ! ' ' ^ / ! (                                                 ",
"                                            _ $ : ) $ ) + ) ) , % % , ) < [ } | 1 2                                             ",
"                                        3 1 4 5 ! ) + , . ! % ) + + , % + ) ' ) ] 6 , 7                                         ",
"                                    8 > < 9 | + * ) % ) % ) % % % ) + % % 0 ) ) ) ) % ! a (                                     ",
"                                b } , % ' % % ) ' % , % , + % % ) ) % ) % ) % ) % % + % c d e f                                 ",
"                            g h ) i j , ) , % % % ) } k l m n ; 1 , , ) < % + , ) ) % > ) ) + < o p                             ",
"                        q r * ] ) % < 0 ) ) 0 ) 0 s t u v w x y z A ) , B , ) ) % ) ) ' % + ! ) > j C }                         ",
"                    D / E % ! % ^ % % , ' + ) ) F G H I J K L M N O P % % , , % ) + , ) Q < ' ) ) + , ) / R                     ",
"                S } } T ; , % ) ) , < ) ) ' ) U V G W X Y Z `  ...+.@.: } % + ) ) , ' ) % < ) ) ) ) ) ) * ' % #.                ",
"            $.] : ) 0 ) % ' % + ) + ) % + ) % ; a %.&.*.=.-.;.>.,.'.).!.+ ~.> {.% ' ) + , + < % + + ) ' , ) % , ].^.            ",
"        /., d * } ) j % ' % {.0 0 , % ) < . P $ * $ (._.:.<.[.}.|.1.2.3.4.5.6.| ! $ , % % 0 , ~.< , % , ) + ; ^ % * >           ",
"        7.8.9.% 0.+ + % < , ) , ) % ) + % % , % ' % ) a.b.c., d.e.f.u g.h.i.j.k.l.0 ) % ) ) $ % ) , , 0 % : m.C + n.o.          ",
"        p.=.q.r.s.t.) ) ! 0 ) % , , % ) % . ) % ) % ) % ! ] ] A u.v.w.x.y.z.A.B.! ) % ) ) , , % % % ' B * > > C.D.E.F.          ",
"        G.-.=.H.I.J.K.c.) : ) % ) + % , % % % , $ B ) % ) + + L.) % M.N.O.P.+ ) % + ) ) ) % , ) ' U , ! ~.Q.R.h.S.F.H           ",
"        T.U.-.V.=.V.>.W.X.Y.% {.P , ) % ) * % ) % ' L.) ) , % , ) % > ; ) ] % % , P ) ) ! U ) % ! a . Z.`. +2..+++@+++          ",
"        #+$+%+&+*+=+-+;+q.>+,+'+) ) 0 , $ , ) % % + % + 0 % + ' < % ' ) ) $ % , , ) % ) ' % , % ! )+!+~+{+++W ]+H ]+^+/+        ",
"        (+=+&+=.%+=+_+:+<+;+[+}+|+h } ) , ' , + < + + % ' , ) ' , + ; $ % % ' , ) % + ) } 6 } 1+2+3+++4+5+5+H ++++]+++6+        ",
"        p.=.&+;.=.%+*+=.7+&+%+*+8+9+0+a+) % L., % ' % % ' , % % , + + % ' ) ) % $ % , % ' b+c+y.d+e+H ++H H ]+f+++++H W         ",
"        #+=.;+-.=.;+=+=.=.-.g+&+-.;+h+i+0+j+P ; ! % + , ) < ) % % , < , ) P < % {.$ k+l+m+n+++++/+++++H ]+H ]+y.H ++]+6+        ",
"        o+%+=+%+;.&+-.%+p+=.=.;+&+q+%+*.&+r+s+t+, > {.) 0 % % < % ) % ) ) 0 $ , ' u+v+H ]+++^+]+++++f+]+f+]+H H ^+H ]+w+        ",
"        #+&+;+;.;+%+;+x+=.y+=.=.%+=.;+=.*+>.z+A+B+> } % % < , % ) % ) < % ) , C+D+E+]+H ++]+H ++++H ]+f+]+]+H H ]+++H F+        ",
"        G+H+&+&+I+q+=.;+%+=.&+-.-+J+=.*+_+=.>.:+K+L+M+! ) % , ) % ) ) % * N+O+F+u .+++H ^+]+^+++++]+H ++++H ]+H H H H 4+        ",
"        P+-.=.=.&+Q+R+S+T+=.&+;.%+&+&+&+-+=+V.&+;+>.U+V+{.> % ) % {.^ W+X+I ++]+++H ++++f+^+]+++H ]+H ]+H ++++H ++^+H Y+        ",
"        p.&+z+-.=.Z+`+ @.@+@@@=.%+*+=.&+=+=.;+=.=+&+&+#@$@%@&@0.^ j *@Y+=@2.e+H ++]+++@+]+H -@++;@]+>@b+,@ +'@++H ++f+F+        ",
"        )@=.-._+;.=.!@~@{@]@^@/@(@_@&+*+q+=._+=.&+I+&+&+=.h+Z+:@<@[@v H ++H ]+H ]+H ]+]+H ++}@|@1@2@3@4@5@6@E+Y+H f+]+h.        ",
"        #+*+&+q+&+;.7@8@9@0@8@a@b@c@h+d@*+=.%+=.*+-.=.-+=.*+&+e@f@H ++]+]+^+f+++]+H g@5+h@i@j@k@l@m@n@o@p@c.I ++++++++6+        ",
"        #+&+=.-.q@%+r@s@t@u@v@w@x@y@z@A@(@z+;.q@*+&+&+&+7+=.=.B@C@H H ++H ++++++++++5+3+D@E@F@G@m@m@n@H@I@J@E.H H ++]+6+        ",
"        G.;+&+p+=.&+!@K@L@M@N@O@P@Q@0@u@R@S@>.T@;+=.*+%+=.U@&+V@W@++f+++]+^+5+E+X@G Y@Z@`@ #.# #+# #n@@###J@$#4+H ++]+%#        ",
"        &#%+&+7+=.;+!@8@*#w@=#0@u@-#0@0@8@;#>#,#-.;+;.=.*+%+=.'#)#++^+++@+++5+!#~#{#]#^#I@m@/#(#_#:#^#n@<#[#G 6+++H ++4+        ",
"        }#=.-+&+=.;.|#1#2#3#4#5#6#7#8#9#0@0#*#a#b#*.&+=.=.=.;+c#d#++]+H ++++G e#f#g#h#i# #j#k#l#m#n#o#n@p#q#r#++++++++F+        ",
"        s#-.%+%+&+=.|#8@*#u@.@q.t#u#v#w#8@0@L@0@x#U+I+;.U@;+-+y#)#H ++]+H ]+z#A#B#B#F@C#l@D#E#F#G#H#I#J#K#L#M#4+++f+H 6+        ",
"        N#q@;.:+=.=.O#P#u@w@Q#R#S#q.h+T#b@U#V#8#W#z+;+-.X#=.-.Y#C@]+H ++H ]+Z#`#m@n@m@ $.$S.2.++e++$@$n@n@#$$#++]+++H $$        ",
"        #+$+-.*+&+%+%$1#u@*#w@0@8@4#&$q.*.*$=$9@-$U+;.-.%+;.%+;$W@]+H ++f+++v >$,$n@'$)$e+6+++@+]+!$~$J#K#{$]$4+++++H ^$        ",
"        #+=+=.;+*+=./$($_$:$0@w@w@u@Q#<$[$}$;+|$1$2$&+&+=.-.3$4$5$H ++@+^+H r#6$j#I@7$u+Y+5+++H ++8$9$n@ #0$a$/+++]+++b$        ",
"        s#_+=.&+I+c$_+d$e$f$8@P#P#0@:$u@V#g$h$%+i$x+=.%+j$-+&+c#)#++]+++]+++$#`#k$n@7$l$]+++]+H ]+m$@$n@n$o$]$H ++++]+F+        ",
"        G+-.=.p+H+-.p$q$@@r$s$t$1#V#w@u$=#u@v$w$<+;+&+&+3$=+&+x$y$++H ++]+5+r#z$n@I@A$B$g@++H ]+H C$D$E$n$F$Z#]+G$f+]+4+        ",
"        #+=.=.-+H$=.`+W#I$S@@@J$K$L$7#9#M$P@N$P#O$P$q@I+:+;+V.y#Q$H ]+H ++f+3.`#I@n@R$S$H ++H e+T$z#U$n@I@V$$#/+++]+]+4+        ",
"        #+&+&+;+&+;.,.W$P@X$Y$Z$`$c$ %.%7#M@x@w@+%h+3$_+-+&+$+@%W@H ]+f+++++#%$%%%n@<#l$^+H &%v *%=%-%m@;%>%G Y+^+H ]+,%        ",
"        '%&+&+q+%+&+)%1#!%3#1#~%b#{%]%^%/%(%0@Q#W#_%=.&+x+=.H$4$:%]+++H ++++]$<%n@m@<#[%++$#}%|%p#I@,$o@1%e H H H H ++W         ",
"        o+&+_+&+:+=.r@2%3%0@0@=#9@8@4%5%6%7%8%Q@+%*.&+&+=.;+-.9%0%H H ++++^+ +6$H@n$7$S$ +a%n@g#n@b%I@I@c%e+++++H ]+]+$$        ",
"        d%-.$+=.I+q@X#e%f%3#=#3#P#g%8#h%i%u@M@Q#j%*.&+p+k%=.-.4$C@]+]+f+@+H Z#$%k$n@g#l%j# #,$F@,$j#b%m%n%H ]+]+++++++/+        ",
"        G+&+=.-.;._+&+o%}$p%*#t@w@-#0@0@u@w@w@u@q%r%=.-+&+=.&+@%W@@+++]+++++$#s%j#I@j#n@/#n@n@/#(#t%u%]$.+2.++++H ++]+g@        ",
"        v%=.=.%+&+=.*+X#-.w%z+x%y%~%0@0@x@w@u@3#-$I.:+%+x+&+%+@%f@f+H H ++++z%s%,$/#I@A%n@m@ #B%C%W $#D%4+F.f+]+++++++w+        ",
"        G+E%%+-.=.&+&+&+>.V.%+&+V.F%=#8@P#G%u@w@+%*.>.=.&+;.*+H%I%H ++++H H r#l#m@j#.#(#J%m@K%L%z%++]+++++++++++++W F+4+        ",
"          =.-+=.=+:+%+&+%+&+*+;.;.c$M%N%t@O%0@M@P%Q%=.&+=.>.=.c#R%++H ++++H ]$s%m@;%S%'$T%U%z#++5+++++]+f+f+H H ++]+2.          ",
"            V%;+*+q@;.;+&+&+_+-.=.&+;.W%V.X%h%0@W#2$&+&+&+&+=.y#C@++]+H ++f+z#Y%m@Z%`% &.&u ]+++++H ]+f+H ]+2.Y++&              ",
"                }.@&=.X#;.&+>.&+-+;+*+=+Z+-.H$#&$&W%_+%+_+&+=+9%C@]+H ]+H ++]$%&&&*&G 6+H H ++H ++]+H F.]+2.]+                  ",
"                    =&;._@-&V.>.x+&+%+=.q@&+#@$@;&>&_+=.;+=.&+y#,&H ++f+++^+6+'&)&4+++H H ]+++++++-@e+e+/+                      ",
"                        q+:+-._+p+=.=.U@I+-.&+%+&+;+=.-.&+V.%+9%!&++++++f+]+++F.]+^+++@+^+H ++++H W 5+F.                        ",
"                            q@q@&+&+&+&+_@&+&+*+=.&+=.I+%+%+=.~&0%H ^+]+++H ++H ++]+++H H F+2.G$2.{&                            ",
"                                g+V.=.=+q@7+&+$+:+z+q@&+-+&+&+]&W@]+]+H ++]+H f+++H ++++]+H ^&;@                                ",
"                                    %+=.k%*+&+=.*+=.%+=.-.%+_+x$Q$++H ]+H H H H ++++e+f+-@&%                                    ",
"                                        ;.X#=.;.U.-+=.=.;.X#&+/&d#++++H ]+++++]+H ]+]+.+                                        ",
"                                            k%=.o%*+x+=.-.%+q@@%d#++++++f+H 2.$$]+.+                                            ",
"                                                ;+H$=.-.;.&+=.(&W@++++6+f+f++&_&                                                ",
"                                                    T+$+H.%+_+9%C@++H 2.I :&                                                    ",
"                                                        =+;+&+<&[&5+]+G                                                         ",
"                                                            @&9%}&{&                                                            ",
"                                                                                                                                ",
"                                                                                                                                "};
